<svg xmlns="http://www.w3.org/2000/svg" viewBox="0 0 178.93 178.93"><defs><style>.cls-1{fill:#ffc864;}.cls-2,.cls-3{fill:none;stroke:#fff;stroke-linecap:round;stroke-linejoin:round;stroke-width:2.55px;}.cls-2{fill-rule:evenodd;}</style></defs><title>Ativo 241</title><g id="Camada_2" data-name="Camada 2"><g id="Layer_1" data-name="Layer 1"><circle class="cls-1" cx="89.47" cy="89.47" r="89.47"/><path class="cls-2" d="M94.25,56.82a1.07,1.07,0,1,1-1.07,1.07,1.06,1.06,0,0,1,1.07-1.07Z"/><path class="cls-2" d="M109.73,56.82a1.07,1.07,0,1,1-1.07,1.07,1.06,1.06,0,0,1,1.07-1.07Z"/><path class="cls-3" d="M102.09,68.83l-2.68-4.24h5.15l-2.47,4.24M114.38,65,130,62.41m-15.63,6.33,14-.47M89.59,65,74,62.41m15.62,6.33-14-.47m33.42,1a3.53,3.53,0,0,1-7,.49,3.54,3.54,0,0,1-7-.49"/><path class="cls-3" d="M76.52,48.53c1-3.94,2.74-8,5-9.94l.11-.09,9.86,7.75.25-.1.18.15a28.6,28.6,0,0,1,20.29,0l.17-.15.25.1,9.86-7.75.11.08c2.23,2,4,6,5,10,1.54,7.3,0,14.63-3.2,21.38C114,87.12,90.1,87.12,79.72,69.93c-3.17-6.75-4.74-14.08-3.2-21.4Z"/><path class="cls-3" d="M83.84,76.27C81,91.06,71.63,88.51,56.41,95.38c-12.62,5.71-16.37,24.74-9.8,36.39a17.35,17.35,0,0,0,15,8.66h58c9.22,0,15.91-6.56,15.91-14.59h0c0-8-6.67-14.59-15.91-14.59h-5.72"/><path class="cls-3" d="M114.32,124.75c-3.46-8.19-2-12.57.08-18.37,3.62-9.89,7.83-15.87,1.18-24.69,0,0-.37-1-.59-1.17"/></g></g></svg>