<svg xmlns="http://www.w3.org/2000/svg" viewBox="0 0 181.48 181.48"><defs><style>.cls-1{fill:#fff;stroke:#ffc864;stroke-miterlimit:10;}.cls-1,.cls-2,.cls-3{stroke-width:2.55px;}.cls-2{fill:#334d5e;fill-rule:evenodd;}.cls-2,.cls-3{stroke:#848484;stroke-linecap:round;stroke-linejoin:round;}.cls-3{fill:none;}</style></defs><title>Ativo 235</title><g id="Camada_2" data-name="Camada 2"><g id="Layer_1" data-name="Layer 1"><circle class="cls-1" cx="90.74" cy="90.74" r="89.47"/><path class="cls-2" d="M95.52,58.09a1.07,1.07,0,1,1-1.07,1.07,1.07,1.07,0,0,1,1.07-1.07Z"/><path class="cls-2" d="M111,58.09a1.07,1.07,0,1,1-1.07,1.07A1.07,1.07,0,0,1,111,58.09Z"/><path class="cls-3" d="M103.37,70.1l-2.68-4.23h5.14l-2.46,4.23m12.29-3.85,15.62-2.57M115.66,70l14-.47M90.87,66.25,75.24,63.68M90.87,70l-14-.47m33.41,1a3.53,3.53,0,0,1-7,.49,3.53,3.53,0,0,1-7-.49"/><path class="cls-3" d="M77.8,49.81c1-3.94,2.73-8,5-10l.12-.08,9.85,7.74.26-.09.17.14a28.74,28.74,0,0,1,20.29,0l.18-.14.25.09,9.86-7.74.1.07c2.24,2,4,6,5,10,1.54,7.31,0,14.64-3.2,21.39-10.38,17.18-34.25,17.18-44.62,0-3.18-6.76-4.74-14.09-3.2-21.4Z"/><path class="cls-3" d="M85.11,77.54c-2.79,14.8-12.2,12.24-27.42,19.12-12.63,5.71-16.38,24.74-9.8,36.39a17.35,17.35,0,0,0,15,8.66h58c9.22,0,15.9-6.57,15.9-14.6h0c0-8-6.67-14.59-15.9-14.59h-5.72"/><path class="cls-3" d="M115.6,126c-3.46-8.19-2-12.58.07-18.37,3.63-9.9,7.83-15.87,1.19-24.69a5.17,5.17,0,0,0-.59-1.18"/></g></g></svg>