<svg xmlns="http://www.w3.org/2000/svg" viewBox="0 0 181.48 181.48"><defs><style>.cls-1{fill:#fff;stroke:#ffc864;stroke-miterlimit:10;}.cls-1,.cls-2,.cls-3{stroke-width:2.55px;}.cls-2,.cls-3{fill:none;stroke:#848484;stroke-linecap:round;stroke-linejoin:round;}.cls-3{fill-rule:evenodd;}</style></defs><title>Ativo 236</title><g id="Camada_2" data-name="Camada 2"><g id="Layer_1" data-name="Layer 1"><circle class="cls-1" cx="90.74" cy="90.74" r="89.47"/><path class="cls-2" d="M141,60.26A2.77,2.77,0,0,1,143.78,63a2.7,2.7,0,0,1-1.3,2.29c-.21,12.09-1.21,15.93-16,16.74-8,.44-15.51,2.54-11.86,12.79l16.83,46.59h-10c-5.72,0-6.56-2-8.54-7-2.68-6.76-4.06-10.24-6.73-17-10.59,4-17.44,2.66-16.21,12.78l8.73.62c5.52.56,10.22,10.91-.31,10.91H64.93c-3.33-2.05-10.55-11.94-15.09-17.93l-.23-.31C36.9,117.86,33.83,101.91,43,98.87c8.86-2.93,12.79,1.28,13.5,1.55.58,3.1-1.78,3.89-5.4,4-8.4.2-5,10.19,3.43,13.45,4,1.55,36.26-33.11,41.39-38.16-.07-8.65.64-14.59,2.58-18.48-.7-2.85-2-7.29-1.87-7.71.53-2.8,3.39-17.12,4.66-13,.33.06,7.53,9.7,8.59,14.45a59.5,59.5,0,0,1,10.82.88c8.45,7.51,8.76,6.6,17.66,6.09A2.82,2.82,0,0,1,141,60.26Z"/><path class="cls-3" d="M115.32,63.74a2.1,2.1,0,1,1-2.1,2.09,2.09,2.09,0,0,1,2.1-2.09Z"/></g></g></svg>