<svg xmlns="http://www.w3.org/2000/svg" viewBox="0 0 178.93 178.93"><defs><style>.cls-1{fill:#ffc864;}.cls-2{fill:none;}.cls-2,.cls-3{stroke:#fff;stroke-linecap:round;stroke-linejoin:round;stroke-width:2.55px;}.cls-3{fill:#fff;fill-rule:evenodd;}</style></defs><title>Ativo 242</title><g id="Camada_2" data-name="Camada 2"><g id="Layer_1" data-name="Layer 1"><circle class="cls-1" cx="89.47" cy="89.47" r="89.47"/><path class="cls-2" d="M139.7,59a2.77,2.77,0,0,1,2.8,2.72,2.7,2.7,0,0,1-1.29,2.3c-.21,12.08-1.21,15.92-16,16.74-8,.44-15.51,2.53-11.85,12.78q8.4,23.3,16.82,46.59h-10c-5.72,0-6.56-2-8.54-7-2.67-6.76-4.05-10.24-6.73-17-10.59,4-17.44,2.66-16.2,12.78l8.72.62c5.53.56,10.22,10.91-.31,10.91H63.66c-3.34-2.05-10.56-11.93-15.09-17.92l-.24-.31c-12.7-5.61-15.77-21.57-6.59-24.6,8.87-2.94,12.8,1.27,13.5,1.54.59,3.1-1.78,3.89-5.39,4-8.41.2-5,10.19,3.42,13.46,4,1.54,36.27-33.12,41.4-38.16-.07-8.66.63-14.6,2.58-18.49-.7-2.84-2-7.28-1.88-7.71.54-2.79,3.39-17.11,4.66-13,.33.06,7.54,9.69,8.6,14.44a58.56,58.56,0,0,1,10.81.89c8.45,7.51,8.76,6.6,17.67,6.08A2.8,2.8,0,0,1,139.7,59Z"/><path class="cls-3" d="M114,62.46a2.1,2.1,0,1,1-2.1,2.1,2.1,2.1,0,0,1,2.1-2.1Z"/></g></g></svg>