<svg xmlns="http://www.w3.org/2000/svg" viewBox="0 0 178.93 178.93"><defs><style>.cls-1{fill:#ffc864;}.cls-2{fill:none;stroke:#fff;stroke-linecap:round;stroke-linejoin:round;stroke-width:2.55px;}</style></defs><title>Ativo 237</title><g id="Camada_2" data-name="Camada 2"><g id="Layer_1" data-name="Layer 1"><circle class="cls-1" cx="89.47" cy="89.47" r="89.47"/><path class="cls-2" d="M124.64,55.21A46.73,46.73,0,0,1,139.2,89c0,26.4-22.26,47.8-49.73,47.8a50.6,50.6,0,0,1-35.17-14,46.49,46.49,0,0,1,0-67.6"/><path class="cls-2" d="M89.47,43.78c20.94,0,37.91,3.64,37.91,8.12S110.41,60,89.47,60,51.55,56.38,51.55,51.9s17-8.12,37.92-8.12Z"/><path class="cls-2" d="M43.7,69c3.82,0,7.15,4.4,11,4.4S62,69,65.83,69s7.93,4.4,11.75,4.4S84.92,69,88.74,69s7.93,4.4,11.75,4.4,7.34-4.4,11.16-4.4,7.93,4.4,11.75,4.4,7.34-4.4,11.16-4.4"/><path class="cls-2" d="M108.65,112.56a16.92,16.92,0,0,1-28.19,0,16.92,16.92,0,0,1,28.19,0Z"/><polyline class="cls-2" points="116.66 105.93 108.65 112.52 116.53 119.19"/><path class="cls-2" d="M88.64,106.27c4,4.56,3.71,8.72,0,12.58"/><path class="cls-2" d="M61.3,91.15a16.92,16.92,0,0,0,28.19,0,16.92,16.92,0,0,0-28.19,0Z"/><polyline class="cls-2" points="53.3 84.52 61.31 91.11 53.42 97.78"/><path class="cls-2" d="M81.31,84.86c-4,4.56-3.7,8.72,0,12.58"/></g></g></svg>