<svg xmlns="http://www.w3.org/2000/svg" viewBox="0 0 181.48 181.48"><defs><style>.cls-1{fill:#fff;stroke:#ffc864;stroke-miterlimit:10;}.cls-1,.cls-2,.cls-3{stroke-width:2.55px;}.cls-2,.cls-3{fill:none;stroke:#848484;}.cls-2{stroke-linecap:round;stroke-linejoin:round;}.cls-3{stroke-miterlimit:22.93;}</style></defs><title>Ativo 231</title><g id="Camada_2" data-name="Camada 2"><g id="Layer_1" data-name="Layer 1"><circle class="cls-1" cx="90.74" cy="90.74" r="89.47"/><path class="cls-2" d="M125.91,56.49a46.74,46.74,0,0,1,14.57,33.8c0,26.39-22.27,47.79-49.74,47.79a50.62,50.62,0,0,1-35.17-14,46.48,46.48,0,0,1,0-67.59"/><path class="cls-2" d="M90.74,45.06c20.94,0,37.92,3.63,37.92,8.11s-17,8.12-37.92,8.12-37.91-3.64-37.91-8.12,17-8.11,37.91-8.11Z"/><path class="cls-3" d="M45,70.27c3.82,0,7.14,4.41,11,4.41s7.34-4.41,11.16-4.41S75,74.68,78.85,74.68,86.19,70.27,90,70.27s7.93,4.41,11.75,4.41,7.34-4.41,11.16-4.41,7.94,4.41,11.75,4.41,7.34-4.41,11.16-4.41"/><path class="cls-2" d="M109.93,113.83a16.92,16.92,0,0,1-28.19,0,16.92,16.92,0,0,1,28.19,0Z"/><polyline class="cls-2" points="117.93 107.2 109.92 113.79 117.81 120.47"/><path class="cls-2" d="M89.92,107.54c4,4.56,3.7,8.73,0,12.59"/><path class="cls-2" d="M62.58,92.43a16.92,16.92,0,0,0,28.19,0,16.92,16.92,0,0,0-28.19,0Z"/><polyline class="cls-2" points="54.57 85.79 62.58 92.39 54.7 99.06"/><path class="cls-2" d="M82.59,86.13c-4,4.56-3.7,8.73,0,12.59"/></g></g></svg>