<svg xmlns="http://www.w3.org/2000/svg" viewBox="0 0 181.48 181.48"><defs><style>.cls-1{fill:#fff;stroke:#ffc864;stroke-miterlimit:10;}.cls-1,.cls-2,.cls-3{stroke-width:2.55px;}.cls-2{fill:none;}.cls-2,.cls-3{stroke:#848484;stroke-linecap:round;stroke-linejoin:round;}.cls-3{fill:#334d5e;fill-rule:evenodd;}</style></defs><title>Ativo 234</title><g id="Camada_2" data-name="Camada 2"><g id="Layer_1" data-name="Layer 1"><circle class="cls-1" cx="90.74" cy="90.74" r="89.47"/><path class="cls-2" d="M62.17,64.48c-2.62,2.15-8.3,7.1-12.06,12.74-4.32,6.48-6.2,13.77.83,19.23-.11.68-.2,1.37-.27,2-1,8.67-.07,17.22,2.46,23.85,6.25,16.35,20.71,14.29,35.39,14.3,15.45,0,35.94,2.62,41.44-16.32a62.18,62.18,0,0,0,1.75-21.69c-.1-1.11-.23-2.16-.37-3.12,7.31-7.26,3.07-14.89-2.54-21.23-1.64-1.84-3.34-3.53-4.88-5.05a45.49,45.49,0,0,1-4-4.2c3.21-5.55,3.27-11.15,1.5-15a9.51,9.51,0,0,0-3.36-4,7.73,7.73,0,0,0-5.1-1.27c-3.47.33-7.42,2.94-10.95,8.86a53.34,53.34,0,0,0-21.65,0c-3.53-5.92-7.47-8.53-10.94-8.86A7.77,7.77,0,0,0,64.34,46,9.56,9.56,0,0,0,61,50c-1.71,3.72-1.72,9.08,1.18,14.44Z"/><path class="cls-3" d="M82.46,71.17A1.46,1.46,0,1,1,81,72.63a1.46,1.46,0,0,1,1.46-1.46Z"/><path class="cls-3" d="M99,71.17a1.46,1.46,0,1,1-1.46,1.46A1.46,1.46,0,0,1,99,71.17Z"/><polyline class="cls-2" points="90.08 84.65 87.51 81.42 92.46 81.42 91.27 83.04 90.08 84.65"/><path class="cls-2" d="M97.38,88a5.21,5.21,0,0,1-5.95.15A3.26,3.26,0,0,1,90,86a3.31,3.31,0,0,1-1.45,2.11,5,5,0,0,1-2.87.86,5,5,0,0,1-3.07-1"/><path class="cls-2" d="M71.16,135.79c4.2-.42,10.72-2.53,11.47-6.82a4.88,4.88,0,0,0-2.14-4.73c-3-2.2-8.15-.73-11.51.51"/><path class="cls-2" d="M110.33,135.79c-4.21-.42-10.73-2.53-11.47-6.82a4.85,4.85,0,0,1,2.13-4.73c3-2.2,8.15-.73,11.52.51"/><path class="cls-2" d="M72.25,96.8c4.2.42,9.63,2.85,10.37,7.14a4.84,4.84,0,0,1-2.13,4.73c-2.21,1.63-7.78,1.64-12.84-.38C60.92,105.6,52.7,98,49.52,95.21"/><path class="cls-2" d="M109.24,96.8c-4.21.42-9.63,2.85-10.38,7.14a4.87,4.87,0,0,0,2.14,4.73c2.21,1.63,7.77,1.64,12.83-.38,6.73-2.69,15-10.27,18.13-13.08"/></g></g></svg>