<svg xmlns="http://www.w3.org/2000/svg" viewBox="0 0 178.93 178.93"><defs><style>.cls-1{fill:#ffc864;}.cls-2,.cls-3{fill:none;stroke:#fff;stroke-linecap:round;stroke-linejoin:round;stroke-width:2.55px;}.cls-3{fill-rule:evenodd;}</style></defs><title>Ativo 240</title><g id="Camada_2" data-name="Camada 2"><g id="Layer_1" data-name="Layer 1"><circle class="cls-1" cx="89.47" cy="89.47" r="89.47"/><path class="cls-2" d="M60.9,63.21c-2.62,2.15-8.31,7.09-12.07,12.73-4.32,6.48-6.19,13.77.83,19.23-.1.69-.19,1.37-.27,2.06-1,8.66-.07,17.22,2.47,23.85,6.24,16.35,20.7,14.28,35.39,14.3,15.45,0,35.93,2.62,41.44-16.33a62.39,62.39,0,0,0,1.74-21.69c-.1-1.11-.22-2.15-.37-3.12,7.31-7.25,3.07-14.88-2.54-21.22-1.63-1.85-3.34-3.53-4.87-5a42.74,42.74,0,0,1-4-4.21c3.21-5.54,3.26-11.15,1.49-15a9.56,9.56,0,0,0-3.35-4,7.77,7.77,0,0,0-5.11-1.27c-3.47.34-7.41,2.94-10.94,8.86a53.81,53.81,0,0,0-21.65,0c-3.53-5.92-7.48-8.52-11-8.86a7.79,7.79,0,0,0-5.1,1.27,9.51,9.51,0,0,0-3.36,4C58,52.48,58,57.85,60.9,63.21Z"/><path class="cls-3" d="M81.19,69.89a1.46,1.46,0,1,1-1.46,1.46,1.46,1.46,0,0,1,1.46-1.46Z"/><path class="cls-3" d="M97.74,69.89a1.46,1.46,0,1,1-1.46,1.46,1.46,1.46,0,0,1,1.46-1.46Z"/><polyline class="cls-2" points="88.81 83.37 86.23 80.15 91.19 80.15 90 81.76 88.81 83.37"/><path class="cls-2" d="M96.1,86.7a5,5,0,0,1-3.08,1,5.07,5.07,0,0,1-2.87-.85,3.34,3.34,0,0,1-1.44-2.12,3.34,3.34,0,0,1-1.44,2.12,5.07,5.07,0,0,1-2.87.85,5,5,0,0,1-3.08-1"/><path class="cls-2" d="M69.88,134.51c4.21-.41,10.73-2.52,11.47-6.82A4.83,4.83,0,0,0,79.22,123c-3-2.21-8.15-.73-11.52.51"/><path class="cls-2" d="M109.05,134.51c-4.21-.41-10.73-2.52-11.47-6.82A4.84,4.84,0,0,1,99.72,123c3-2.21,8.14-.73,11.51.51"/><path class="cls-2" d="M71,95.52c4.21.42,9.63,2.85,10.37,7.15a4.85,4.85,0,0,1-2.13,4.73C77,109,71.44,109,66.38,107c-6.73-2.68-15-10.26-18.13-13.07"/><path class="cls-2" d="M108,95.52c-4.21.42-9.63,2.85-10.37,7.15a4.85,4.85,0,0,0,2.13,4.73c2.21,1.62,7.78,1.63,12.83-.39,6.74-2.68,15-10.26,18.13-13.07"/></g></g></svg>