<svg xmlns="http://www.w3.org/2000/svg" viewBox="0 0 178.93 178.93"><defs><style>.cls-1{fill:#ffc864;}.cls-2,.cls-3{fill:none;stroke:#fff;stroke-linecap:round;stroke-linejoin:round;stroke-width:2.55px;}.cls-3{fill-rule:evenodd;}</style></defs><title>Ativo 238</title><g id="Camada_2" data-name="Camada 2"><g id="Layer_1" data-name="Layer 1"><circle class="cls-1" cx="89.47" cy="89.47" r="89.47"/><path class="cls-2" d="M60.9,100.73c.54,13.89-4,20-8.16,23.86-3.07,2.84-10.75,6.89-10.6,9,.18,2.41,2.66,3.4,8.89,3,11.31-.64,11.94-1.85,13.39-5.75M87.1,87.3C99.62,109.89,73.28,116.55,71.77,129c-.28,2.31,0,8.16-2.7,9.59-3.66,3-6.78-18-7.63-24a65,65,0,0,1,.2-20.1c6.27-28.91,4.8-51.83,38.85-48.26a23.32,23.32,0,0,1,12.67,7.87,16.2,16.2,0,0,1,2.4,4.54m1.2,29.57c-.29,2.15-.65,4.3-1.07,6.4-5.27,26.78-15.26,24.56-37,23.57m41.64-58.83a16.26,16.26,0,0,1,16.47,16,15.4,15.4,0,0,1-.42,3.62,16.67,16.67,0,0,0-10.85-4c-5.4,0-10.93,3.61-13.93,7.52-5-6.57-6.68-18.51,2.71-22.1a16.89,16.89,0,0,1,6-1.11ZM112.5,84.14c1.16,2.68,3.17,4.19,6.68,4.19s9.18-4.24,9.18-9.46a10,10,0,0,0-.23-2.14m-25.94,40.83V127m-4.75,1c3.46-1.7,12.17-3.39,17.51.63m-13.48-1.85a12.52,12.52,0,0,1,6.72,5.4M84.94,119.06V131.4M79.21,134c3.63-1.7,12.78-3.39,18.38.64m-12.65-1.94c3.89,1.59,5.27,3.18,6.72,5.4"/><path class="cls-3" d="M98.63,60.32a2.26,2.26,0,1,0,2.31,2.26,2.29,2.29,0,0,0-2.31-2.26Z"/><path class="cls-2" d="M58.63,40c-2,10.14,10.78,12.17,19.23,9.78m-23.47,2c4.38,6,12.79,7.17,17.85,2.61M53.52,63.38c5.81,3.65,13.37,1.86,16.09-3.7"/></g></g></svg>