<svg xmlns="http://www.w3.org/2000/svg" viewBox="0 0 181.48 181.48"><defs><style>.cls-1{fill:#fff;stroke:#ffc864;stroke-miterlimit:10;}.cls-1,.cls-2,.cls-3{stroke-width:2.55px;}.cls-2{fill:none;}.cls-2,.cls-3{stroke:#848484;stroke-linecap:round;stroke-linejoin:round;}.cls-3{fill:#334d5e;fill-rule:evenodd;}</style></defs><title>Ativo 232</title><g id="Camada_2" data-name="Camada 2"><g id="Layer_1" data-name="Layer 1"><circle class="cls-1" cx="90.74" cy="90.74" r="89.47"/><path class="cls-2" d="M62.18,102c.54,13.9-4,20-8.17,23.86-3.07,2.84-10.75,6.9-10.59,9,.17,2.41,2.66,3.39,8.88,3,11.32-.63,12-1.84,13.39-5.75M88.38,88.57c12.52,22.59-13.82,29.26-15.33,41.75-.28,2.3,0,8.15-2.71,9.59-3.66,3-6.78-18-7.62-24a65.32,65.32,0,0,1,.19-20.1C69.18,66.88,67.72,44,101.77,47.54a23.18,23.18,0,0,1,12.66,7.87,16.15,16.15,0,0,1,2.41,4.53M118,89.52c-.3,2.15-.66,4.29-1.07,6.4-5.27,26.77-15.26,24.55-37,23.57M121.6,60.66a16.26,16.26,0,0,1,16.47,16,16.07,16.07,0,0,1-.42,3.62,16.65,16.65,0,0,0-10.85-4c-5.41,0-10.94,3.62-13.94,7.53-5-6.57-6.68-18.51,2.71-22.1a16.73,16.73,0,0,1,6-1.11Zm-7.82,24.75c1.16,2.69,3.17,4.19,6.68,4.19s9.18-4.23,9.18-9.46A9.33,9.33,0,0,0,129.4,78m-25.94,40.83v9.44m-4.74,1c3.46-1.7,12.17-3.39,17.51.63m-13.49-1.85a12.51,12.51,0,0,1,6.73,5.4M86.22,120.33v12.35m-5.73,2.57c3.63-1.7,12.77-3.39,18.38.63m-12.65-1.94a12.49,12.49,0,0,1,6.72,5.41"/><path class="cls-3" d="M99.9,61.59a2.26,2.26,0,1,0,2.31,2.26,2.28,2.28,0,0,0-2.31-2.26Z"/><path class="cls-2" d="M59.91,41.29C58,51.43,70.69,53.45,79.13,51.06m-23.46,2c4.38,6,12.78,7.17,17.84,2.6M54.79,64.65c5.81,3.66,13.38,1.87,16.1-3.7"/></g></g></svg>