<svg xmlns="http://www.w3.org/2000/svg" viewBox="0 0 50.43 43.66"><defs><style>.cls-1{fill:#ff5148;}</style></defs><title>Ativo 162</title><g id="Camada_2" data-name="Camada 2"><g id="Layer_1" data-name="Layer 1"><path class="cls-1" d="M17.15,19.61c4,0,7.3-4.4,7.3-9.81S21.18,0,17.15,0,9.84,4.4,9.84,9.8s3.28,9.81,7.31,9.81Z"/><path class="cls-1" d="M38.81,29.14a3.58,3.58,0,0,1-.37-.56c-1.63-3.5-6.11-7.62-13.36-7.72H24.8c-7.14,0-11.59,3.9-13.37,7.56a3.51,3.51,0,0,1-.33.46,5.7,5.7,0,0,0-.48.62,12.82,12.82,0,0,0-2.16,7.41,7.06,7.06,0,0,0,3,5.86,4.34,4.34,0,0,0,2.39.72c1.74,0,3.34-1,5.18-2.12a27.22,27.22,0,0,1,3.74-2,8.25,8.25,0,0,1,1.78-.13,11,11,0,0,1,2.25.17,24.08,24.08,0,0,1,3.59,2.08c1.71,1.13,3.33,2.19,5.08,2.19a4.37,4.37,0,0,0,2.17-.59c3.8-2.16,4.53-8.08,1.62-13.2a8.59,8.59,0,0,0-.5-.73Z"/><path class="cls-1" d="M32.68,19.61c4,0,7.3-4.4,7.3-9.81S36.7,0,32.68,0s-7.31,4.4-7.31,9.8,3.28,9.81,7.31,9.81Z"/><path class="cls-1" d="M44.68,14.57c-3.23,0-5.76,3.35-5.76,7.63s2.53,7.62,5.76,7.62,5.75-3.35,5.75-7.62-2.53-7.63-5.75-7.63Z"/><path class="cls-1" d="M11.51,22.2c0-4.28-2.53-7.63-5.75-7.63S0,17.92,0,22.2s2.53,7.62,5.76,7.62,5.75-3.35,5.75-7.62Z"/></g></g></svg>