<svg xmlns="http://www.w3.org/2000/svg" viewBox="0 0 178.93 178.93"><defs><style>.cls-1{fill:#ffc864;}.cls-2{fill:none;stroke:#fff;stroke-linecap:round;stroke-linejoin:round;stroke-width:2.55px;}</style></defs><title>Ativo 239</title><g id="Camada_2" data-name="Camada 2"><g id="Layer_1" data-name="Layer 1"><circle class="cls-1" cx="89.47" cy="89.47" r="89.47"/><path class="cls-2" d="M122.09,72.92A15.36,15.36,0,0,0,128.76,63c.39-2.09.39-6.94-1.55-8.87-1.76-1.77-6.79-1.78-8.74-1.42a15.08,15.08,0,0,0-7.92,4.19,16.56,16.56,0,0,0-2,2.42"/><path class="cls-2" d="M73.24,58.12c-3.71-4.27-3.73-7-.33-10.36C76.79,43.88,83.55,45.55,89,51A11.28,11.28,0,0,1,91,53.69"/><path class="cls-2" d="M59.3,113.08c-2.64,5-5.38,10.35-5.3,11.2a3.63,3.63,0,0,0,3.19,3.19c.85.08,6.22-2.66,11.19-5.31"/><path class="cls-2" d="M53.32,104.07a28.29,28.29,0,0,1-5.71,2.79c-4.64.48-8.89-3.82-9.5-9.62-.32-3.12,0-6.18,1.77-8.59,1.37-1.85,7.21-2.43,11.11-4.28"/><path class="cls-2" d="M76.77,128.74c-1.48,2.56-2.77,5-2.85,5.8-.48,4.64,3.83,8.89,9.63,9.5,3.11.32,6.17,0,8.59-1.77,1.45-1.08,2.83-7.87,4.4-11.38"/><path class="cls-2" d="M115.83,65.64c-9.42-9.42-23.41-14.76-36.65-9.78a22.17,22.17,0,0,0-6.54,4.07L58.19,73c-8.92,8.07-9.35,21.8-4.35,32.1,0,0,.88,1.68,1,1.88s.62,1,.74,1.21.25.4.38.59l.4.59h0l.42.57h0c.14.19.28.38.43.56h0c.14.19.29.37.44.56h0l.45.54h0c.15.18.31.36.47.53h0l.48.52h0l.49.5h0l8.74,8.73h0l.51.5h0l.52.48h0l.53.47h0l.54.45h0l.55.44h0l.57.43h0l.57.41h0l.58.4.6.39c.18.11,1.14.66,1.21.73,10.1,5.75,24.22,6.15,33-2.35,0,0,.5-.49.49-.49,4.61-4.76,9.13-10,13.6-15a22,22,0,0,0,4.07-6.53c5-13.19-.37-27.23-9.78-36.65Z"/><path class="cls-2" d="M123.82,107.36c4.39,3.89,7.12,4,10.57.51,3.88-3.88,2.21-10.64-3.21-16.06a11.22,11.22,0,0,0-2.93-2.17"/><path class="cls-2" d="M108,73.43c-6.59-6.59-16.38-10.33-25.64-6.84a15.14,15.14,0,0,0-4.58,2.85L67.7,78.61c-6.24,5.65-6.55,15.26-3,22.46,0,0,.62,1.18.7,1.32s.43.72.51.85l.27.41.28.41h0l.29.4h0l.3.4h0l.31.39h0l.32.38h0L68,106h0l.34.36h0c.11.12.23.24.35.35h0l6.11,6.12h0l.36.35h0l.36.33h0l.37.33h0l.38.32h0l.39.31h0l.39.29h0l.4.3h0l.41.29.42.27c.12.07.8.46.85.51,7.06,4,17,4.3,23.09-1.65l.35-.34c3.22-3.33,6.38-7,9.51-10.48a15.42,15.42,0,0,0,2.85-4.57c3.47-9.23-.26-19.06-6.85-25.65Z"/><path class="cls-2" d="M98.92,82.55c-3.29-3.28-8.16-5.15-12.78-3.41a7.77,7.77,0,0,0-2.28,1.42l-5,4.57c-3.11,2.81-3.26,7.6-1.52,11.19,0,0,.31.59.35.66s.22.36.26.42a2.39,2.39,0,0,0,.13.21c0,.06.09.13.14.2h0l.15.2h0a2.43,2.43,0,0,0,.14.2h0c0,.06.11.12.16.19h0c.05.06.1.13.16.19h0l.16.18h0l.17.18h0l.17.18h0l3,3.05h0l.17.17h0l.18.17h0l.19.16h0l.19.16h0l.19.15h0l.2.15h0l.2.15h0l.2.14.21.13c.06,0,.4.23.42.26,3.52,2,8.44,2.14,11.5-.82l.18-.18c1.6-1.65,3.18-3.5,4.74-5.21a7.91,7.91,0,0,0,1.42-2.28c1.73-4.6-.13-9.5-3.41-12.78Z"/><path class="cls-2" d="M108,73.56l-9.12,9.12m17,8.84H103m3.59,17.91-9.11-9.12M88.6,118.17V105.28M71.48,110l9.12-9.12M62.9,92.39H75.8M72,74.88,81.15,84M90,65.58v12.9"/></g></g></svg>