<svg xmlns="http://www.w3.org/2000/svg" viewBox="0 0 181.48 181.48"><defs><style>.cls-1{fill:#fff;stroke:#ffc864;stroke-miterlimit:10;}.cls-1,.cls-2,.cls-3{stroke-width:2.55px;}.cls-2,.cls-3{fill:none;stroke:#848484;}.cls-2{stroke-linecap:round;stroke-linejoin:round;}.cls-3{stroke-miterlimit:22.93;}</style></defs><title>Ativo 233</title><g id="Camada_2" data-name="Camada 2"><g id="Layer_1" data-name="Layer 1"><circle class="cls-1" cx="90.74" cy="90.74" r="89.47"/><path class="cls-2" d="M123.37,74.2a15.53,15.53,0,0,0,2.47-2A15.06,15.06,0,0,0,130,64.28c.39-2.1.39-7-1.54-8.88-1.77-1.77-6.79-1.77-8.74-1.42a15.07,15.07,0,0,0-7.92,4.2,15.39,15.39,0,0,0-2,2.41"/><path class="cls-2" d="M74.51,59.39c-3.7-4.26-3.72-7-.32-10.36,3.88-3.88,10.64-2.2,16.06,3.21A11.68,11.68,0,0,1,92.31,55"/><path class="cls-2" d="M60.58,114.36c-2.65,5-5.38,10.34-5.31,11.19a3.65,3.65,0,0,0,3.2,3.2c.84.07,6.21-2.67,11.19-5.31"/><path class="cls-2" d="M54.59,105.34a28.22,28.22,0,0,1-5.7,2.8c-4.64.48-8.89-3.83-9.5-9.63-.33-3.12,0-6.17,1.77-8.59,1.36-1.85,7.2-2.42,11.1-4.28"/><path class="cls-2" d="M78,130a29,29,0,0,0-2.84,5.79c-.49,4.64,3.82,8.9,9.62,9.5,3.12.33,6.18,0,8.59-1.76,1.46-1.08,2.84-7.88,4.41-11.39"/><path class="cls-2" d="M117.1,66.92c-9.42-9.42-23.4-14.77-36.64-9.78a21.84,21.84,0,0,0-6.54,4.07L59.47,74.32c-8.92,8.07-9.35,21.79-4.35,32.09,0,0,.88,1.69,1,1.88s.62,1,.73,1.22l.39.59c.13.19.26.39.4.58h0l.41.58h0l.43.56h0l.44.55h0c.15.19.3.37.46.55h0l.46.53h0l.48.52h0l.5.5h0l8.74,8.74h0c.16.17.33.33.5.49h0c.17.17.35.33.52.48h0l.53.47h0l.54.46h0l.55.44h0l.56.42h0l.58.42h0l.58.4.59.39c.18.11,1.15.66,1.22.73,10.09,5.75,24.21,6.14,33-2.35l.5-.5c4.6-4.75,9.12-10,13.59-15a21.84,21.84,0,0,0,4.07-6.54c5-13.18-.36-27.23-9.78-36.64Z"/><path class="cls-2" d="M125.09,108.63c4.39,3.89,7.12,4,10.58.52,3.88-3.88,2.2-10.65-3.21-16.06a11.1,11.1,0,0,0-2.93-2.17"/><path class="cls-2" d="M109.31,74.71c-6.59-6.59-16.38-10.33-25.65-6.85a15.63,15.63,0,0,0-4.57,2.85L69,79.89c-6.24,5.64-6.54,15.25-3,22.46l.69,1.32s.44.72.52.84a4.94,4.94,0,0,0,.27.42l.28.41h0l.29.4h0l.3.39h0c.1.14.2.26.31.39h0l.31.38h0l.33.37h0c.11.12.22.25.34.37h0l.34.35h0L76,114.11h0l.35.34h0l.37.34h0c.12.11.24.22.37.32h0l.38.32h0c.12.11.25.21.38.31h0l.4.3h0c.13.1.26.2.4.29h0c.13.1.27.19.41.28l.41.27c.13.08.8.47.85.51,7.07,4,17,4.3,23.1-1.64,0,0,.35-.34.34-.35,3.22-3.33,6.39-7,9.52-10.47a15.31,15.31,0,0,0,2.84-4.58c3.48-9.22-.25-19-6.84-25.64Z"/><path class="cls-2" d="M100.19,83.83c-3.28-3.29-8.16-5.15-12.78-3.41a7.69,7.69,0,0,0-2.27,1.41l-5,4.58C77,89.22,76.84,94,78.58,97.6l.35.65.25.42.14.21a1.43,1.43,0,0,0,.14.2h0l.14.21h0l.15.19h0l.15.19h0l.16.19h0l.16.19h0l.17.18h0l.17.18h0l3,3h0l.18.17h0l.18.16h0l.18.17h0l.19.15h0l.2.16h0l.19.15h0l.2.14h0l.21.14.2.14.43.25c3.52,2,8.44,2.14,11.5-.82l.17-.17c1.61-1.66,3.18-3.5,4.74-5.22a7.45,7.45,0,0,0,1.42-2.28c1.73-4.59-.13-9.49-3.41-12.77Z"/><path class="cls-3" d="M109.27,74.83,100.15,84m17,8.84h-12.9m3.6,17.92-9.12-9.12m-8.87,17.86v-12.9m-17.11,4.71,9.12-9.12m-17.7-8.47H77.07M73.31,76.16l9.12,9.11m8.8-18.41V79.75"/></g></g></svg>